<svg width="1129" height="1302" viewBox="0 0 1129 1302" fill="none" xmlns="http://www.w3.org/2000/svg">
<path d="M112.828 1085C105.595 1085 101.979 1081.38 101.979 1074.15V336.43C101.979 329.197 105.595 325.581 112.828 325.581H368.861C440.463 325.581 497.239 344.386 539.187 381.995C581.86 419.604 603.196 470.594 603.196 534.964V875.617C603.196 939.987 581.86 990.977 539.187 1028.59C497.239 1066.2 440.463 1085 368.861 1085H112.828ZM179.006 1013.4C179.006 1016.29 180.452 1017.74 183.345 1017.74H372.115C419.127 1017.74 456.375 1004 483.858 976.512C512.065 949.028 526.169 912.142 526.169 865.853V545.813C526.169 498.801 512.427 461.553 484.943 434.069C457.46 406.586 419.85 392.844 372.115 392.844H183.345C180.452 392.844 179.006 394.29 179.006 397.183V1013.4Z" fill="#393E46"/>
<path d="M1016.17 1085C1023.4 1085 1027.02 1081.38 1027.02 1074.15V336.43C1027.02 329.197 1023.4 325.581 1016.17 325.581H760.139C688.537 325.581 631.761 344.386 589.813 381.995C547.14 419.604 525.804 470.594 525.804 534.964V875.617C525.804 939.987 547.14 990.977 589.813 1028.59C631.761 1066.2 688.537 1085 760.139 1085H1016.17ZM949.994 1013.4C949.994 1016.29 948.548 1017.74 945.655 1017.74H756.885C709.873 1017.74 672.625 1004 645.142 976.512C616.935 949.028 602.831 912.142 602.831 865.853V545.813C602.831 498.801 616.573 461.553 644.057 434.069C671.54 406.586 709.15 392.844 756.885 392.844H945.655C948.548 392.844 949.994 394.29 949.994 397.183V1013.4Z" fill="#3DBFD5"/>
<rect x="526.169" y="882.824" width="77.298" height="215.621" fill="#3DBFD5"/>
<path d="M564.818 1098.45H526.169V1151.33L564.818 1098.45Z" fill="#3DBFD5"/>
<path d="M603.467 1151.33V1098.45H564.818L603.467 1151.33Z" fill="#3DBFD5"/>
<path d="M525.491 1097.09V1154.05M604.145 1097.09V1154.05" stroke="white" stroke-width="1.35611"/>
<rect x="216.977" y="429.885" width="151.884" height="37.9709" fill="#393E46"/>
<rect x="216.977" y="505.827" width="227.826" height="37.9709" fill="#393E46"/>
<line x1="600.5" y1="449" x2="600.5" y2="943" stroke="#3DBFD5" stroke-width="7"/>
</svg>
