<svg width="876" height="784" viewBox="0 0 876 784" fill="none" xmlns="http://www.w3.org/2000/svg">
<path d="M10.2649 718.538C3.42168 718.538 0 715.116 0 708.273V10.2648C0 3.42161 3.42168 0 10.2649 0H252.515C320.263 0 373.982 17.7924 413.672 53.3771C454.047 88.9619 474.235 137.207 474.235 198.111V520.427C474.235 581.331 454.047 629.576 413.672 665.161C373.982 700.745 320.263 718.538 252.515 718.538H10.2649ZM72.8802 650.79C72.8802 653.527 74.249 654.896 76.9863 654.896H255.594C300.075 654.896 335.318 641.894 361.322 615.89C388.01 589.885 401.355 554.985 401.355 511.188V208.376C401.355 163.895 388.353 128.652 362.349 102.648C336.344 76.6441 300.76 63.6419 255.594 63.6419H76.9863C74.249 63.6419 72.8802 65.0106 72.8802 67.7479V650.79Z" fill="white"/>
<path d="M112.229 102.648H249.093V143.708H180.661H112.229V102.648Z" fill="white"/>
<path d="M112.229 164.237H317.525V205.297H112.229V164.237Z" fill="white"/>
<path fill-rule="evenodd" clip-rule="evenodd" d="M875.479 708.273C875.479 715.116 872.057 718.538 865.214 718.538H622.964C562.407 718.538 513.059 704.322 474.919 675.891V783.548H474.816L437.282 712.304L399.748 783.548H399.644V195.032C399.644 176.408 404.598 152.891 406.453 146.933C406.494 146.801 406.534 146.674 406.574 146.555L406.578 146.557L407.075 145.074C415.715 108.486 433.959 77.9204 461.806 53.3771C501.497 17.7924 555.216 0 622.964 0H865.214C872.057 0 875.479 3.42161 875.479 10.2648V708.273ZM474.919 529.177V189.887C478.102 154.019 490.839 124.939 513.13 102.648C539.135 76.6441 574.719 63.6419 619.885 63.6419H798.493C801.23 63.6419 802.599 65.0106 802.599 67.7479V650.79C802.599 653.527 801.23 654.896 798.493 654.896H619.885C575.404 654.896 540.161 641.894 514.157 615.889C491.23 593.55 478.151 564.646 474.919 529.177Z" fill="#38BEC9"/>
</svg>
