<svg width="256" height="229" viewBox="0 0 256 229" fill="none" xmlns="http://www.w3.org/2000/svg">
<path d="M3 210C1 210 0 209 0 207V3C0 0.999999 1 0 3 0H73.8C93.6 0 109.3 5.2 120.9 15.6C132.7 26 138.6 40.1 138.6 57.9V152.1C138.6 169.9 132.7 184 120.9 194.4C109.3 204.8 93.6 210 73.8 210H3ZM21.3 190.2C21.3 191 21.7 191.4 22.5 191.4H74.7C87.7 191.4 98 187.6 105.6 180C113.4 172.4 117.3 162.2 117.3 149.4V60.9C117.3 47.9 113.5 37.6 105.9 30C98.3 22.4 87.9 18.6 74.7 18.6H22.5C21.7 18.6 21.3 19 21.3 19.8V190.2Z" fill="#9FB3C8"/>
<path d="M32.8 30H72.8V42H32.8V30Z" fill="#9FB3C8"/>
<path d="M32.8 48H92.8V60H32.8V48Z" fill="#9FB3C8"/>
<path fill-rule="evenodd" clip-rule="evenodd" d="M255.868 207C255.868 209 254.868 210 252.868 210H182.068C164.369 210 149.947 205.845 138.8 197.536V229H138.77L127.8 208.178L116.83 229H116.8V57C116.8 51.557 118.248 44.684 118.79 42.9428C118.802 42.904 118.814 42.8671 118.825 42.8323L118.827 42.8327L118.972 42.3994C121.497 31.7062 126.829 22.773 134.968 15.6C146.568 5.20001 162.268 0 182.068 0H252.868C254.868 0 255.868 1 255.868 3V207ZM138.8 154.657V55.4964C139.73 45.0136 143.453 36.5148 149.968 30C157.568 22.4 167.968 18.6 181.168 18.6H233.368C234.168 18.6 234.568 19 234.568 19.8V190.2C234.568 191 234.168 191.4 233.368 191.4H181.168C168.168 191.4 157.868 187.6 150.268 180C143.567 173.471 139.744 165.024 138.8 154.657Z" fill="#38BEC9"/>
</svg>
