<svg width="1129" height="1302" viewBox="0 0 1129 1302" fill="none" xmlns="http://www.w3.org/2000/svg">
<path d="M112.828 1085.07C105.595 1085.07 101.979 1081.45 101.979 1074.22V336.499C101.979 329.267 105.595 325.65 112.828 325.65H368.861C440.463 325.65 497.239 344.455 539.187 382.064C581.86 419.674 603.196 470.663 603.196 535.033V875.687C603.196 940.057 581.86 991.046 539.187 1028.66C497.239 1066.26 440.463 1085.07 368.861 1085.07H112.828ZM179.006 1013.47C179.006 1016.36 180.452 1017.81 183.345 1017.81H372.115C419.127 1017.81 456.375 1004.06 483.858 976.581C512.065 949.097 526.169 912.211 526.169 865.923V545.882C526.169 498.87 512.427 461.623 484.943 434.139C457.46 406.655 419.85 392.913 372.115 392.913H183.345C180.452 392.913 179.006 394.36 179.006 397.253V1013.47Z" fill="#868686"/>
<path d="M1016.17 1085.07C1023.4 1085.07 1027.02 1081.45 1027.02 1074.22V336.499C1027.02 329.267 1023.4 325.65 1016.17 325.65H760.139C688.537 325.65 631.761 344.455 589.813 382.064C547.14 419.674 525.804 470.663 525.804 535.033V875.687C525.804 940.057 547.14 991.046 589.813 1028.66C631.761 1066.26 688.537 1085.07 760.139 1085.07H1016.17ZM949.994 1013.47C949.994 1016.36 948.548 1017.81 945.655 1017.81H756.885C709.873 1017.81 672.625 1004.06 645.142 976.581C616.935 949.097 602.831 912.211 602.831 865.923V545.882C602.831 498.87 616.573 461.623 644.057 434.139C671.54 406.655 709.15 392.913 756.885 392.913H945.655C948.548 392.913 949.994 394.36 949.994 397.253V1013.47Z" fill="#67B5B9"/>
<path d="M710.599 471.994L712.633 472.672L713.311 473.35" stroke="white" stroke-width="1.35611"/>
<rect x="691.614" y="467.926" width="2.71221" height="20.3416" fill="white"/>
<rect x="691.614" y="467.926" width="2.71221" height="20.3416" fill="white"/>
<rect x="691.614" y="467.926" width="2.71221" height="20.3416" fill="white"/>
<rect x="716.024" y="467.926" width="2.71221" height="20.3416" fill="white"/>
<rect x="716.024" y="467.926" width="2.71221" height="20.3416" fill="white"/>
<rect x="716.024" y="467.926" width="2.71221" height="20.3416" fill="white"/>
<rect x="526.169" y="882.894" width="77.298" height="215.621" fill="#67B5B9"/>
<path d="M564.818 1098.51H526.169V1151.4L564.818 1098.51Z" fill="#67B5B9"/>
<path d="M603.467 1151.4V1098.51H564.818L603.467 1151.4Z" fill="#67B5B9"/>
<path d="M525.491 1097.16V1154.11M604.145 1097.16V1154.11" stroke="white" stroke-width="1.35611"/>
<rect x="216.977" y="429.955" width="151.884" height="37.9709" fill="#868686"/>
<rect x="216.977" y="505.897" width="227.826" height="37.9709" fill="#868686"/>
</svg>
