<svg width="237" height="40" viewBox="0 0 237 40" fill="none" xmlns="http://www.w3.org/2000/svg">
<path d="M71.082 13.1181C66.292 13.1411 62.39 17.0781 62.412 21.9801C62.434 26.8821 66.375 30.7821 71.165 30.7601C75.955 30.7381 79.858 26.8001 79.835 21.9001C79.812 17.0001 75.872 13.0971 71.08 13.1201L71.082 13.1181ZM71.148 27.1651C69.79 27.1731 68.485 26.6401 67.52 25.6851C66.555 24.7301 66.02 23.4291 66.005 22.0711C65.99 20.7131 66.53 19.4081 67.485 18.4431C68.44 17.4781 69.741 16.9431 71.099 16.9281C72.457 16.9131 73.762 17.4531 74.727 18.4081C75.692 19.3631 76.227 20.6641 76.242 22.0221C76.256 24.7471 73.872 27.1521 71.148 27.1661V27.1651ZM90.488 17.2731C87.983 17.2851 86.032 19.3631 86.044 21.8681L86.084 30.2531L82.272 30.2711L82.195 13.6081L86.007 13.5901L86.02 16.2031C86.02 16.2031 87.64 13.5831 90.908 13.5681L91.998 13.5621L92.016 17.2641L90.488 17.2731ZM52.462 13.7501L55.348 25.1721L58.344 13.7221L62.156 13.7051L57.44 30.4001L53.738 30.4171L50.744 18.7791L47.858 30.4441L44.155 30.4611L39.177 13.8211L42.879 13.8041L46.199 25.2241L48.869 13.7761L52.462 13.7501ZM103.137 21.1361C105.742 19.6001 107.582 16.7591 107.567 13.4921L103.755 13.5101C103.769 16.3421 101.491 18.6401 98.769 18.6501L98.224 18.6521L98.164 5.4751L94.352 5.4931L94.469 30.2131L98.279 30.1961L98.243 22.3561L98.678 22.3541C99.114 22.3521 99.551 22.5681 99.662 22.8941L105.032 30.1641L109.497 30.1441L103.137 21.1361Z" fill="#4B4B4B"/>
<path d="M30.3531 13.3101C26.2161 13.3301 23.0701 16.0671 21.8931 20.4281C19.9181 17.3881 18.3771 13.9111 17.4931 10.9751L13.1381 10.9951L13.1921 22.5381C13.1968 23.6356 12.7657 24.6901 11.9933 25.4697C11.2209 26.2494 10.1705 26.6905 9.07305 26.6961C7.97557 26.7009 6.9211 26.2697 6.1414 25.4973C5.36171 24.7249 4.92061 23.6746 4.91505 22.5771L4.86005 11.0341L0.503052 11.0541L0.557052 22.5971C0.580052 27.3871 4.40705 31.1831 9.09105 31.1601C13.7751 31.1371 17.5691 27.3081 17.5471 22.5171L17.5371 20.5571C18.4151 22.2941 19.5131 24.1401 20.7201 25.7691L18.0571 38.5221L22.5211 38.5021L24.4411 29.2361C26.1881 30.3181 28.1411 30.9611 30.4371 30.9501C35.2291 30.9271 39.1321 26.9901 39.1071 21.9801C39.0888 19.6718 38.1582 17.4645 36.5183 15.84C34.8784 14.2154 32.6624 13.3056 30.3541 13.3091L30.3531 13.3101ZM30.4151 26.4871C28.6731 26.4951 26.9281 25.7411 25.5071 24.5491L25.9341 22.8061V22.7061C26.2541 20.8521 27.2161 17.6901 30.4841 17.6761C31.6363 17.6742 32.7427 18.1275 33.5625 18.9373C34.3822 19.7471 34.8489 20.8479 34.8611 22.0001C34.7631 24.5051 32.7041 26.4751 30.4161 26.4861L30.4151 26.4871Z" fill="#3DBFD5"/>
<line x1="0.993304" y1="35.4956" x2="234.991" y2="34.451" stroke="#3DBFD5" stroke-width="3"/>
<path d="M122.12 13.08L122.44 17C122.92 16.04 123.573 15.2133 124.4 14.52C125.227 13.8 126.067 13.2533 126.92 12.88C127.8 12.5067 128.52 12.32 129.08 12.32L128.88 16.8C127.6 16.6933 126.48 16.92 125.52 17.48C124.587 18.04 123.853 18.8 123.32 19.76C122.813 20.6933 122.56 21.68 122.56 22.72V30H118.08V13.08H122.12ZM139.404 30.44C137.404 30.44 135.697 30.0533 134.284 29.28C132.87 28.5067 131.79 27.44 131.044 26.08C130.297 24.6933 129.924 23.1333 129.924 21.4C129.924 19.72 130.35 18.2 131.204 16.84C132.057 15.4533 133.204 14.36 134.644 13.56C136.084 12.7333 137.697 12.32 139.484 12.32C141.804 12.32 143.71 13 145.204 14.36C146.724 15.6933 147.737 17.5867 148.244 20.04L135.244 24.44C136.204 25.88 137.617 26.6 139.484 26.6C140.177 26.6 140.83 26.48 141.444 26.24C142.084 26 142.697 25.68 143.284 25.28L145.324 28.6C144.417 29.16 143.444 29.6133 142.404 29.96C141.364 30.28 140.364 30.44 139.404 30.44ZM134.324 21.16C134.324 21.3733 134.337 21.6 134.364 21.84L143.244 18.68C142.924 17.9333 142.444 17.28 141.804 16.72C141.164 16.1333 140.27 15.84 139.124 15.84C137.71 15.84 136.55 16.3333 135.644 17.32C134.764 18.3067 134.324 19.5867 134.324 21.16ZM157.628 30.44L147.908 13.08H153.228L157.908 22.72L162.108 13.08H167.108L157.828 30.44H157.628ZM169.178 13.08H173.658V30H169.178V13.08ZM168.978 7.04C168.978 6.34667 169.245 5.77333 169.778 5.32C170.338 4.86667 170.938 4.64 171.578 4.64C172.192 4.64 172.765 4.86667 173.298 5.32C173.832 5.77333 174.098 6.34667 174.098 7.04C174.098 7.73333 173.832 8.30667 173.298 8.76C172.765 9.18667 172.192 9.4 171.578 9.4C170.938 9.4 170.338 9.18667 169.778 8.76C169.245 8.30667 168.978 7.73333 168.978 7.04ZM186.283 30.44C184.283 30.44 182.577 30.0533 181.163 29.28C179.75 28.5067 178.67 27.44 177.923 26.08C177.177 24.6933 176.803 23.1333 176.803 21.4C176.803 19.72 177.23 18.2 178.083 16.84C178.937 15.4533 180.083 14.36 181.523 13.56C182.963 12.7333 184.577 12.32 186.363 12.32C188.683 12.32 190.59 13 192.083 14.36C193.603 15.6933 194.617 17.5867 195.123 20.04L182.123 24.44C183.083 25.88 184.497 26.6 186.363 26.6C187.057 26.6 187.71 26.48 188.323 26.24C188.963 26 189.577 25.68 190.163 25.28L192.203 28.6C191.297 29.16 190.323 29.6133 189.283 29.96C188.243 30.28 187.243 30.44 186.283 30.44ZM181.203 21.16C181.203 21.3733 181.217 21.6 181.243 21.84L190.123 18.68C189.803 17.9333 189.323 17.28 188.683 16.72C188.043 16.1333 187.15 15.84 186.003 15.84C184.59 15.84 183.43 16.3333 182.523 17.32C181.643 18.3067 181.203 19.5867 181.203 21.16ZM208.824 13.08L212.824 22.36L216.464 13.08H220.864L213.144 31L207.704 19.56L202.744 31L194.944 13.08H199.344L203.264 22.08L206.104 15.6L204.944 13.08H208.824ZM228.013 30.36C226.733 30.36 225.506 30.1333 224.333 29.68C223.186 29.2267 222.213 28.56 221.413 27.68L223.333 25.16C224.08 25.88 224.813 26.4133 225.533 26.76C226.28 27.08 226.986 27.24 227.653 27.24C228.4 27.24 229.04 27.1067 229.573 26.84C230.133 26.5467 230.413 26.0667 230.413 25.4C230.413 24.8667 230.226 24.4533 229.853 24.16C229.48 23.84 229 23.5867 228.413 23.4C227.826 23.1867 227.213 22.9867 226.573 22.8C225.106 22.3467 224.013 21.68 223.293 20.8C222.573 19.92 222.213 18.9067 222.213 17.76C222.213 16.88 222.44 16.04 222.893 15.24C223.346 14.4133 224.026 13.7333 224.933 13.2C225.866 12.6667 227.053 12.4 228.493 12.4C229.746 12.4 230.853 12.5467 231.813 12.84C232.773 13.1333 233.666 13.6 234.493 14.24L232.773 16.92C232.293 16.4667 231.72 16.12 231.053 15.88C230.413 15.6133 229.826 15.4667 229.293 15.44C228.573 15.4133 227.973 15.56 227.493 15.88C227.013 16.2 226.773 16.6267 226.773 17.16C226.746 17.6933 226.92 18.12 227.293 18.44C227.693 18.76 228.2 19.0133 228.813 19.2C229.426 19.3867 230.04 19.5867 230.653 19.8C231.88 20.2 232.893 20.7733 233.693 21.52C234.493 22.24 234.893 23.2533 234.893 24.56C234.893 25.6 234.64 26.56 234.133 27.44C233.626 28.32 232.866 29.0267 231.853 29.56C230.84 30.0933 229.56 30.36 228.013 30.36Z" fill="#3DBFD5"/>
</svg>
